<svg xmlns="http://www.w3.org/2000/svg" width="900" height="900" viewBox="0 0 900 900"><rect width="900" height="900" fill="#faf8fb"/><rect y="690" width="900" height="210" fill="#8a5ab0"/><rect x="110" y="140" width="500" height="360" rx="28" fill="#f7f7f7" stroke="#d8d8d8" stroke-width="8"/><rect x="500" y="250" width="260" height="220" rx="20" fill="#ffffff" stroke="#cfcfcf" stroke-width="8"/><rect x="500" y="380" width="260" height="90" rx="10" fill="#e7f5df"/><path d="M565 265 C540 300 540 340 565 370 M605 265 C580 300 580 340 605 370 M645 265 C620 300 620 340 645 370 M685 265 C660 300 660 340 685 370" fill="none" stroke="#79a943" stroke-width="12"/><rect x="250" y="215" width="270" height="75" rx="14" fill="#ffffff" stroke="#d4d4d4" stroke-width="7"/><rect x="305" y="90" width="38" height="160" rx="16" fill="#ffffff" stroke="#d4d4d4" stroke-width="7"/><path d="M325 92 L325 45 Q325 25 345 25 H455 Q475 25 475 45 V90" fill="none" stroke="#d4d4d4" stroke-width="28"/><circle cx="250" cy="510" r="13" fill="#b6b6b6"/><circle cx="605" cy="510" r="13" fill="#b6b6b6"/><g fill="#8a5ab0" font-family="Arial, sans-serif" text-anchor="middle"><text x="450" y="610" font-size="46" font-weight="700">Manual Vegetable Slicer &amp; Grater</text><text x="450" y="665" font-size="34">Multiple cutting heads • Spiral • Grating</text></g><g fill="#ffffff" font-family="Arial, sans-serif" text-anchor="middle"><text x="450" y="755" font-size="58" font-weight="700">999204</text><text x="450" y="835" font-size="72" font-weight="700">$32</text></g></svg>